# xmcd
#
# Track frame offsets:
#  150
#  8557
#  23861
#  37061
#  54954
#  76602
#  98943
#  111963
#  128369
#  148368
#  157969
#  172365
#  192041
#  206798
#  219728
#  237050
#  252771
#  263258
#  285446
#  295474
#  312359
#  327639
#  340694
#
# Disc length: 5003 seconds
#
# Revision: 0
# Processed by: cddbd v1.5.2PL0 Copyright (c) Steve Scherf et al.
# Submitted via: AltoMP3_Maker 3.0
#
DISCID=48138917
DTITLE=Various Artist - Truckers, Kickers, Cowboy Angels, Vol. 6, disc 2 (1973)
DYEAR=1900
DGENRE=
TTITLE0=Willie Nelson - The Troublemaker
TTITLE1=Hoyt Axton - Sweet Misery
TTITLE2=J. J. Cale - Lies
TTITLE3=Little Feat - Dixie Chicken
TTITLE4=Allman Bros. Band - Ramblin' Man
TTITLE5=Gram Parsons - She
TTITLE6=Earl Scruggs Revue - If I'd Only Come and Gone
TTITLE7=Asleep at the Wheel - Take Me Back to Tulsa
TTITLE8=Jerry Jeff Walker - Sangria Wine
TTITLE9=Commander Cody and Lost Planet Airmen - Everybody's Doing It
TTITLE10=Jim Ford - Big Mouth USA
TTITLE11=Delbert and Glen - To Be with You
TTITLE12=Kinky Friedman - Sold American
TTITLE13=Goose Creek Symphony - Me and Him
TTITLE14=Michael Nesmith - Winonah
TTITLE15=Gene Clark and Flying Burrito Bros - Here Tonight
TTITLE16=Gene Parsons - Sonic Bummer
TTITLE17=Chip Taylor - 101 in Cashbox
TTITLE18=Billy Joe Shaver - Georgia on a Fast Train
TTITLE19=Townes Van Zandt - If I Needed You
TTITLE20=Gram Parsons and Emmylou Harris - Sleepless Nights
TTITLE21=Sir Douglas Quintet - Texas Tornado
TTITLE22=Jerry Jeff Walker w Gary P Nunn - London homesick Blues
EXTD=
EXTT0=
EXTT1=
EXTT2=
EXTT3=
EXTT4=
EXTT5=
EXTT6=
EXTT7=
EXTT8=
EXTT9=
EXTT10=
EXTT11=
EXTT12=
EXTT13=
EXTT14=
EXTT15=
EXTT16=
EXTT17=
EXTT18=
EXTT19=
EXTT20=
EXTT21=
EXTT22=
PLAYORDER=
